<?xml version="1.0" encoding="UTF-8" standalone="no"?>
<!-- Created with Inkscape (http://www.inkscape.org/) -->

<svg
   width="300"
   height="300"
   viewBox="0 0 79.374999 79.374999"
   version="1.1"
   id="svg36805"
   inkscape:version="1.1.2 (0a00cf5339, 2022-02-04)"
   sodipodi:docname="rolph.svg"
   inkscape:export-filename="/home/lopis/dev/gamesfortrees/rolph.png"
   inkscape:export-xdpi="130"
   inkscape:export-ydpi="130"
   xmlns:inkscape="http://www.inkscape.org/namespaces/inkscape"
   xmlns:sodipodi="http://sodipodi.sourceforge.net/DTD/sodipodi-0.dtd"
   xmlns="http://www.w3.org/2000/svg"
   xmlns:svg="http://www.w3.org/2000/svg">
  <sodipodi:namedview
     id="namedview36807"
     pagecolor="#ffffff"
     bordercolor="#666666"
     borderopacity="1.0"
     inkscape:pageshadow="2"
     inkscape:pageopacity="0.0"
     inkscape:pagecheckerboard="0"
     inkscape:document-units="mm"
     showgrid="false"
     units="px"
     inkscape:zoom="1.1021475"
     inkscape:cx="25.858608"
     inkscape:cy="181.46391"
     inkscape:window-width="1912"
     inkscape:window-height="999"
     inkscape:window-x="4"
     inkscape:window-y="77"
     inkscape:window-maximized="1"
     inkscape:current-layer="layer1" />
  <defs
     id="defs36802" />
  <g
     inkscape:label="Layer 1"
     inkscape:groupmode="layer"
     id="layer1">
    <rect
       style="fill:#ffffff;stroke:none;stroke-width:1.28655;stroke-linecap:round;stroke-linejoin:round;paint-order:stroke fill markers"
       id="rect1098"
       width="79.375"
       height="79.375"
       x="0"
       y="0" />
    <g
       id="g37164"
       transform="matrix(1.3931648,0,0,1.3931648,-171.88045,-94.101099)">
      <path
         style="fill:#fefefe;stroke-width:0.0792665"
         d="M 131.12742,94.249519 V 79.849133 h 18.59247 18.59246 V 94.249519 108.6499 h -18.59246 -18.59247 z"
         id="path37184" />
      <path
         style="fill:#9ecaae;stroke-width:0.264583"
         d="m 139.27199,156.00219 c -2.29105,-0.49659 -3.57186,-1.0195 -5.1907,-2.11917 -1.64048,-1.11437 -2.53793,-2.65674 -3.14467,-5.40444 -0.82576,-3.73959 -0.81197,-16.02791 0.0315,-28.07142 l 0.1593,-2.27455 -2.24163,1.09751 c -2.99345,1.4656 -5.48136,2.05058 -9.35314,2.19922 -8.94425,0.34335 -17.06228,-2.69038 -19.36268,-7.23589 -1.62494,-3.21083 -1.419386,-8.34775 0.52111,-13.02284 0.44104,-1.06256 0.75845,-1.961694 0.70535,-1.998066 -0.0531,-0.03638 -0.81092,-0.280763 -1.684042,-0.543087 -2.280246,-0.685083 -4.421319,-1.888122 -5.92333,-3.328238 -3.612082,-3.463229 -3.877803,-7.961223 -0.827869,-14.013752 2.133698,-4.23428 4.377594,-6.150019 8.846891,-7.553086 4.47122,-1.403673 4.74003,-1.691198 3.78703,-4.05059 -0.34076,-0.843637 -1.19615,-2.393266 -1.90086,-3.443619 -0.70471,-1.050354 -1.22676,-1.964258 -1.16012,-2.030899 0.0666,-0.06664 0.92453,-0.331872 1.90642,-0.589402 l 1.78525,-0.468235 0.47257,0.6265 c 0.47136,0.624899 0.47296,0.621813 0.62633,-1.207635 0.28333,-3.379567 1.57803,-6.226446 3.84281,-8.449853 2.81951,-2.767993 8.14694,-6.139988 11.24863,-7.119813 4.12252,-1.302304 7.13365,-1.119389 10.96332,0.66598 l 1.65248,0.770379 1.38557,-0.912506 c 5.49803,-3.620883 13.83355,-4.33955 19.43901,-1.675981 2.09557,0.995757 4.25862,2.973229 5.22482,4.776545 0.4163,0.776989 0.78353,1.447651 0.81608,1.490361 0.0325,0.04271 1.88123,-0.119796 4.10821,-0.361126 5.5778,-0.60445 11.67076,-0.433692 13.7888,0.386438 1.81535,0.702927 3.15092,2.089117 4.20298,4.362306 1.8867,4.076555 2.09575,10.696362 0.53404,16.910967 -0.46779,1.861516 -0.80966,3.507174 -0.75971,3.657018 0.0499,0.149844 0.48721,-0.697058 0.97169,-1.882005 0.48448,-1.184947 1.05472,-2.221156 1.26719,-2.30269 0.45549,-0.174792 3.79239,0.682143 3.79239,0.973907 0,0.110091 -0.54509,1.01304 -1.21131,2.00655 l -1.21131,1.806382 1.583,0.433324 c 3.67781,1.006745 6.46625,3.207271 7.29294,5.755293 0.57366,1.768139 1.04877,7.524067 0.88453,10.716114 -0.17701,3.440266 -0.71377,4.96828 -2.30379,6.558299 -2.20245,2.20245 -6.63722,3.15259 -14.72707,3.15521 -4.79722,0.002 -4.7983,0.002 -5.22229,0.64879 -0.70851,1.08132 -5.45595,5.17289 -7.72542,6.65813 -1.17453,0.76867 -2.72235,1.62868 -3.43958,1.91114 l -1.30407,0.51355 0.0835,2.34487 c 0.11536,3.24053 0.89203,7.92934 2.28817,13.81378 1.53895,6.4864 1.8192,8.39235 1.66652,11.33368 -0.10814,2.08328 -0.2583,2.70565 -1.05328,4.36562 -1.98068,4.13582 -6.00721,7.22343 -11.80321,9.05092 -4.62121,1.45707 -10.513,1.8971 -14.32833,1.07011 z m 11.49763,-51.19654 c 0.51696,-0.50772 0.50251,-0.51249 -1.55375,-0.51249 -1.87897,0 -2.04204,0.0404 -1.72163,0.42648 0.82494,0.99399 2.31113,1.03301 3.27538,0.086 z m 4.7625,0 c 0.51698,-0.50773 0.50295,-0.51249 -1.51305,-0.51249 -1.66586,0 -2.00825,0.0694 -1.88812,0.38242 0.19851,0.51732 1.40643,0.94003 2.2179,0.77614 0.3638,-0.0735 0.89627,-0.3642 1.18327,-0.64607 z m -8.14465,-9.327264 c 1.23832,-0.649536 1.66971,-1.424019 1.66971,-2.997697 v -1.375984 l -0.75194,0.75194 c -1.93219,1.932191 -4.98201,1.393418 -6.28466,-1.110236 -0.7556,-1.452243 -0.25246,-3.611375 1.08709,-4.66507 l 0.72921,-0.57359 -0.76329,-0.02681 c -2.74881,-0.09654 -4.86096,0.733491 -6.21415,2.442028 -2.23378,2.820373 -2.05496,6.848242 0.33716,7.594427 1.66746,0.520139 1.9508,0.543936 5.64287,0.473885 2.84635,-0.05401 3.89958,-0.172784 4.548,-0.512895 z m 17.8141,0.183026 c 1.29306,-0.517377 1.84728,-1.46227 1.84728,-3.149418 v -1.224118 l -0.80405,0.804045 c -1.95896,1.958956 -5.58187,1.076677 -6.36916,-1.551064 -0.40908,-1.365375 -0.10744,-2.742108 0.83626,-3.816925 0.42938,-0.489039 0.7807,-0.979045 0.7807,-1.0889 0,-0.389165 -3.33852,0.07506 -4.37341,0.608129 -2.31297,1.1914 -3.81285,3.613822 -3.82287,6.174218 -0.007,1.69831 0.58895,2.702351 1.95613,3.297621 1.25784,0.547667 8.54453,0.508418 9.94912,-0.05359 z"
         id="path37182" />
      <path
         style="fill:#9ba79a;stroke-width:0.264583"
         d="m 139.53218,156.0034 c -4.12576,-0.88911 -6.87381,-2.63045 -7.80079,-4.94308 -1.60831,-4.01244 -1.8011,-11.65934 -0.75722,-30.03392 l 0.1692,-2.97822 -2.48633,1.16608 c -4.14542,1.9442 -8.42711,2.58611 -13.55015,2.03142 -7.3913,-0.80027 -12.96692,-3.43646 -14.77845,-6.98734 -1.715064,-3.36182 -1.499945,-8.374 0.57541,-13.4068 l 0.72846,-1.766521 -1.3449,-0.344686 c -0.739687,-0.189579 -2.278308,-0.823269 -3.419152,-1.408205 -4.162037,-2.133965 -6.319502,-5.639834 -5.912907,-9.608436 0.350226,-3.418408 2.335227,-7.722565 4.778662,-10.361768 1.715964,-1.853446 3.207413,-2.699202 6.359627,-3.606353 2.31523,-0.666281 3.41007,-1.232598 3.90409,-2.019432 0.35647,-0.567745 -0.68808,-3.128538 -2.18683,-5.361211 -0.70017,-1.043028 -1.21904,-1.983774 -1.15305,-2.090547 0.1484,-0.240126 2.66627,-1.001632 3.31182,-1.001632 0.25998,0 0.6407,0.320647 0.84603,0.712548 0.36031,0.687663 0.38016,0.643772 0.56845,-1.256771 0.5309,-5.358952 2.51892,-8.202151 8.5835,-12.275885 4.41361,-2.96474 7.69161,-4.170919 11.3937,-4.192451 2.15573,-0.01254 3.16159,0.237922 5.87647,1.463233 l 1.77543,0.80131 1.27506,-0.818206 c 3.70071,-2.374739 7.10597,-3.326423 11.84283,-3.309773 2.98786,0.0105 3.72303,0.104608 5.59789,0.716563 3.60261,1.175894 6.04568,3.113062 7.46915,5.922454 0.666,1.314436 0.37942,1.278089 5.71837,0.725269 7.06409,-0.731449 11.5737,-0.388656 14.06067,1.068801 3.04152,1.78245 4.89887,7.616283 4.50408,14.147075 -0.12176,2.014291 -1.14477,7.251435 -1.9252,9.855729 -0.0763,0.254661 -0.0351,0.463021 0.0916,0.463021 0.1267,0 0.62327,-0.960954 1.10348,-2.135452 0.48021,-1.174499 1.04517,-2.201479 1.25548,-2.282182 0.41034,-0.157462 3.21991,0.560382 3.57224,0.912704 0.11683,0.116834 -0.31689,0.983003 -0.96383,1.924822 -0.64694,0.941822 -1.1801,1.797108 -1.18479,1.90064 -0.005,0.103531 0.49748,0.31795 1.11594,0.476488 4.26203,1.092528 6.83972,3.136249 7.7279,6.12708 0.20927,0.704692 0.52528,3.232452 0.70225,5.617247 0.86596,11.669777 -1.83933,14.094827 -16.0083,14.349967 l -5.52764,0.0995 -2.83717,2.74105 c -3.02162,2.91927 -6.84141,5.63535 -9.03434,6.42392 l -1.33624,0.4805 0.1748,2.51777 c 0.25927,3.73448 1.06846,8.47661 2.38931,14.00223 0.6468,2.70584 1.31341,5.81268 1.48136,6.90409 0.40234,2.61473 0.17697,5.83508 -0.54114,7.73239 -2.04787,5.41061 -8.66026,9.67724 -16.94443,10.93336 -3.11475,0.47229 -6.99213,0.46038 -9.26042,-0.0284 z m 10.68862,-50.68774 c 0.36264,-0.16523 0.7217,-0.46289 0.79789,-0.66146 0.10983,-0.28619 -0.28481,-0.3593 -1.90367,-0.35267 l -2.04222,0.008 0.74236,0.65309 c 0.81786,0.71953 1.40998,0.80633 2.40564,0.35268 z m 5.10548,-0.35268 0.74236,-0.65309 -2.05052,-0.008 c -2.16495,-0.009 -2.5338,0.24172 -1.32292,0.89863 1.05207,0.57076 1.78814,0.50441 2.63108,-0.23718 z m 9.91605,-9.206459 c 0.53438,-0.228245 1.1649,-0.709998 1.40116,-1.070562 0.50885,-0.776613 0.80602,-2.356532 0.56257,-2.990956 -0.15336,-0.399658 -0.254,-0.374774 -0.89264,0.220697 -1.54071,1.43659 -2.95847,1.63671 -4.68152,0.660816 -0.76459,-0.433049 -1.18921,-0.928145 -1.55689,-1.815309 -0.7149,-1.724999 -0.43727,-2.964397 0.96228,-4.295759 l 1.0843,-1.031468 -2.13888,0.123817 c -1.83801,0.1064 -2.32459,0.242991 -3.45912,0.971013 -2.23279,1.432777 -3.23308,3.280452 -3.23308,5.97194 0,2.395537 0.71699,3.164324 3.43959,3.688087 1.49933,0.288439 7.54344,-0.01852 8.51223,-0.432316 z m -18.53292,0.06508 c 1.37371,-0.381572 2.28875,-1.405253 2.49691,-2.793355 0.096,-0.640199 0.0976,-1.36462 0.003,-1.60982 -0.15171,-0.395324 -0.21681,-0.380537 -0.57479,0.130553 -0.58864,0.840407 -1.77273,1.36724 -3.07042,1.36611 -2.92184,-0.0026 -4.7318,-2.918409 -3.41442,-5.50069 0.30731,-0.602366 0.79981,-1.224227 1.09445,-1.381916 0.76397,-0.408858 0.393,-0.789321 -0.76961,-0.789321 -4.00626,0 -7.17615,3.071757 -7.17615,6.953994 0,1.481283 0.10049,1.856083 0.68339,2.548826 0.37587,0.446694 1.06048,0.92134 1.52136,1.05477 1.15053,0.333097 8.02563,0.348667 9.20581,0.02085 z"
         id="path37180" />
      <path
         style="fill:#71b289;stroke-width:0.264583"
         d="m 140.7331,156.14015 c -4.90321,-0.77148 -7.71356,-2.37723 -8.8715,-5.06894 -1.33266,-3.09785 -1.78569,-9.45557 -1.35365,-18.9968 0.15484,-3.41974 0.36229,-7.97734 0.46099,-10.128 l 0.17946,-3.9103 -2.22426,1.06334 c -5.47895,2.6193 -11.96748,3.03156 -19.1274,1.2153 -4.40607,-1.11769 -8.18042,-3.53196 -9.4683,-6.05641 -1.715064,-3.36182 -1.499945,-8.374 0.57541,-13.4068 l 0.72846,-1.766521 -1.31801,-0.337798 c -2.340531,-0.599858 -4.993771,-2.116593 -6.73185,-3.848286 -1.418119,-1.412906 -1.708643,-1.878284 -2.216634,-3.550737 -0.466383,-1.535464 -0.549395,-2.268474 -0.410465,-3.624506 0.334215,-3.262132 2.275739,-7.59728 4.52082,-10.094351 1.679326,-1.867813 3.325688,-2.879762 5.950139,-3.657301 3.14401,-0.931465 3.57505,-1.118793 4.26556,-1.8538 l 0.60778,-0.646962 -0.509,-1.514577 c -0.27995,-0.833017 -1.13143,-2.433728 -1.89218,-3.557135 -0.76076,-1.123407 -1.29947,-2.093138 -1.19714,-2.154958 0.31675,-0.191353 3.04085,-0.961859 3.40063,-0.961859 0.18722,0 0.50841,0.320647 0.71374,0.712548 0.36016,0.687382 0.38009,0.642995 0.56445,-1.256771 0.50121,-5.165052 2.28128,-7.816488 7.94764,-11.838087 4.43193,-3.145486 8.23324,-4.608146 12.03356,-4.630249 2.15573,-0.01254 3.16159,0.237922 5.87647,1.463233 l 1.77543,0.80131 1.27506,-0.818206 c 3.70071,-2.374739 7.10597,-3.326423 11.84283,-3.309773 2.98786,0.0105 3.72303,0.104608 5.59789,0.716563 3.57503,1.166894 6.03549,3.11991 7.46796,5.927789 0.66737,1.308164 0.3836,1.272444 5.71956,0.719934 11.5714,-1.198157 15.62298,0.200123 17.54504,6.05514 1.41333,4.305282 1.39616,9.473629 -0.0515,15.507394 -0.50581,2.108213 -0.86657,3.886213 -0.80167,3.95111 0.22439,0.224385 0.56913,-0.38377 1.31672,-2.322782 0.41285,-1.070787 0.89287,-2.001472 1.06673,-2.068187 0.31151,-0.119539 1.9502,0.25174 3.18774,0.722254 l 0.63372,0.240938 -1.24711,1.87548 c -1.36406,2.051357 -1.34315,2.174132 0.42588,2.500561 1.30023,0.239922 3.91927,1.528077 5.09357,2.505231 1.80945,1.505662 2.35295,3.122195 2.81698,8.378473 1.08829,12.327608 -1.52766,14.803538 -15.93087,15.078178 l -5.52395,0.10533 -2.89766,2.77666 c -3.09945,2.97001 -6.80259,5.60124 -8.99023,6.3879 l -1.34524,0.48374 0.17292,2.8471 c 0.22226,3.65938 0.89732,7.5707 2.39908,13.90034 2.13738,9.00866 2.18667,11.72351 0.28278,15.57575 -2.20684,4.46524 -8.0655,8.1571 -15.05713,9.48831 -2.71805,0.51752 -7.23119,0.70244 -9.27925,0.38019 z m 9.85271,-50.93595 c 0.99545,-0.69724 0.66776,-0.91104 -1.39634,-0.91104 -2.09999,0 -2.45558,0.25663 -1.25677,0.907 0.94921,0.51496 1.92156,0.51644 2.65311,0.004 z m 4.74047,-0.24122 0.74236,-0.65309 h -2.24896 -2.24896 l 0.74236,0.65309 c 0.42322,0.37234 1.0709,0.6531 1.5066,0.6531 0.4357,0 1.08338,-0.28076 1.5066,-0.6531 z m 9.90205,-9.200609 c 1.53272,-0.654859 2.38623,-2.404229 1.97412,-4.046196 l -0.16922,-0.674221 -0.66231,0.787111 c -1.34176,1.594591 -3.6264,1.705443 -5.27716,0.256048 -1.75248,-1.538695 -1.73036,-4.034673 0.0506,-5.714375 l 0.91503,-0.862989 -1.80478,0.0058 c -2.15612,0.0069 -3.54631,0.562739 -4.97095,1.987383 -1.41165,1.411642 -1.98042,2.818699 -1.98739,4.916437 -0.008,2.486602 0.67907,3.241516 3.43378,3.771458 1.48491,0.285665 7.54302,-0.01836 8.49823,-0.426466 z m -18.45379,0.04125 c 0.56356,-0.15648 1.30211,-0.583886 1.64122,-0.949791 0.63742,-0.687787 1.09528,-2.650374 0.79865,-3.423367 -0.14221,-0.370604 -0.26065,-0.33215 -0.81316,0.264028 -1.8872,2.03632 -5.13261,1.499785 -6.25334,-1.033804 -0.71046,-1.606095 -0.46248,-2.860098 0.82042,-4.148929 1.08042,-1.085405 0.9646,-1.268595 -0.80203,-1.268595 -1.55217,0 -3.72238,0.926 -4.80171,2.04882 -1.53721,1.59915 -2.06574,2.845744 -2.06574,4.872275 0,1.516658 0.0977,1.885628 0.68339,2.581725 0.37587,0.446694 1.06048,0.92134 1.52136,1.05477 1.18265,0.342397 8.0405,0.344516 9.27094,0.0029 z"
         id="path37178" />
      <path
         style="fill:#489a66;stroke-width:0.264583"
         d="m 140.7331,156.14015 c -3.60003,-0.56643 -6.44944,-1.78051 -7.8066,-3.32622 -0.96412,-1.09807 -1.71806,-3.13419 -2.1447,-5.79203 -0.4571,-2.84764 -0.45724,-12.54415 -2.6e-4,-21.49801 0.20242,-3.96659 0.3191,-7.26092 0.25927,-7.32075 -0.0598,-0.0598 -1.04043,0.34568 -2.17913,0.9011 -3.84749,1.8767 -8.23518,2.56387 -13.37925,2.09538 -6.98534,-0.63619 -12.36443,-2.92908 -14.66207,-6.24985 -2.103594,-3.04031 -2.007099,-9.22933 0.2225,-14.27085 0.36344,-0.821796 0.62949,-1.515198 0.59123,-1.540883 -0.0383,-0.02569 -0.97041,-0.360715 -2.071422,-0.744501 -4.009852,-1.397722 -6.356708,-3.196029 -7.680664,-5.885365 -0.717638,-1.45773 -0.840015,-1.998683 -0.849784,-3.756385 -0.02778,-4.998032 3.684601,-11.632895 7.626601,-13.630457 0.727059,-0.368429 2.391289,-0.996045 3.698279,-1.394703 2.73456,-0.834091 3.51998,-1.276982 3.72694,-2.10158 0.20904,-0.832877 -0.96482,-3.562697 -2.39211,-5.562863 -0.66248,-0.928379 -1.11451,-1.742414 -1.00452,-1.808968 0.3267,-0.197687 3.0457,-0.970466 3.41455,-0.970466 0.18722,0 0.51124,0.326063 0.72005,0.724583 l 0.37965,0.724583 0.1666,-1.319895 c 0.76458,-6.057327 2.23424,-8.379831 7.7901,-12.310661 4.46151,-3.156569 7.49739,-4.439439 11.07435,-4.679685 2.64897,-0.177917 4.70215,0.218028 7.05477,1.360485 l 1.72656,0.838432 1.53146,-1.008441 c 3.21407,-2.116401 7.16628,-3.201743 11.58564,-3.181613 5.98258,0.02725 10.61431,2.313712 12.90342,6.369798 l 0.81234,1.43938 2.00566,-0.150021 c 1.10311,-0.08251 3.55347,-0.290206 5.44524,-0.461543 3.89264,-0.352555 7.44705,-0.189179 9.7123,0.446418 4.21797,1.183502 6.35719,5.654071 6.37608,13.324847 0.008,3.21477 -0.0883,3.979172 -0.96218,7.645778 -1.06243,4.457565 -1.07353,4.525055 -0.74426,4.525055 0.1247,0 0.62265,-1.024094 1.10655,-2.275766 0.48391,-1.251672 1.02424,-2.331183 1.20075,-2.398916 0.3156,-0.121105 1.9482,0.247293 3.19257,0.720402 l 0.63372,0.240938 -1.24023,1.86514 c -0.72483,1.090033 -1.1393,1.956623 -0.99735,2.085279 0.13359,0.121079 0.82198,0.360521 1.52977,0.532093 1.99478,0.483545 4.17992,1.709219 5.39252,3.024738 1.77447,1.925074 1.96546,2.609985 2.44733,8.776777 0.54352,6.955646 -0.59665,10.450136 -3.96736,12.159546 -2.53699,1.28661 -9.18941,2.16966 -14.44169,1.91702 l -2.93231,-0.14105 -2.49165,2.42463 c -3.29,3.20151 -5.68914,4.9834 -8.53216,6.337 l -2.33636,1.11238 0.15835,2.8461 c 0.20151,3.62166 0.86853,7.50979 2.38451,13.89934 2.13738,9.00866 2.18667,11.72351 0.28278,15.57575 -2.20684,4.46524 -8.0655,8.1571 -15.05713,9.48831 -2.71805,0.51752 -7.23119,0.70244 -9.27925,0.38019 z m 9.85271,-50.93595 c 0.99545,-0.69724 0.66776,-0.91104 -1.39634,-0.91104 -2.07869,0 -2.37834,0.18981 -1.38906,0.8799 0.77135,0.53807 2.04139,0.55227 2.7854,0.0311 z m 4.39749,0.11146 c 0.36264,-0.16523 0.7217,-0.46289 0.79789,-0.66146 0.11027,-0.28734 -0.30534,-0.35933 -2.03596,-0.35267 l -2.17451,0.008 0.74236,0.65309 c 0.80777,0.71065 1.64257,0.82091 2.67022,0.35268 z m 10.52375,-9.579123 c 1.17649,-0.581257 1.80638,-1.786278 1.80638,-3.455754 0,-0.669232 -0.0672,-1.216784 -0.14937,-1.216784 -0.0822,0 -0.44324,0.349239 -0.80241,0.776089 -1.33264,1.583748 -3.6219,1.690227 -5.26789,0.245025 -1.73732,-1.525384 -1.73,-4.035007 0.0166,-5.682231 l 0.88095,-0.830845 -0.95675,-0.155257 c -1.85082,-0.300347 -4.59248,0.678712 -5.92897,2.117259 -2.25197,2.423946 -2.62195,6.424641 -0.72422,7.83119 1.0855,0.804545 2.19578,0.963689 6.31751,0.905534 3.09475,-0.04366 4.02433,-0.146947 4.8082,-0.534226 z m -18.09356,-0.171955 c 0.81629,-0.370483 1.24295,-0.774578 1.52136,-1.440899 0.41316,-0.988844 0.52946,-3.059684 0.17183,-3.059684 -0.11829,0 -0.55587,0.355705 -0.97239,0.790456 -1.92604,2.010351 -5.44964,1.015298 -6.19404,-1.749177 -0.38423,-1.426927 0.0274,-2.770513 1.15105,-3.757094 0.49525,-0.434826 0.8297,-0.86134 0.74323,-0.947806 -0.0865,-0.08647 -0.82198,-0.156048 -1.63447,-0.154628 -3.58675,0.0063 -6.61744,2.754416 -7.00307,6.35018 -0.22722,2.118731 0.22365,3.165811 1.67927,3.899839 1.07507,0.542124 1.54787,0.594794 5.29167,0.589503 3.49991,-0.0049 4.27979,-0.08236 5.24556,-0.52069 z"
         id="path37176" />
      <path
         style="fill:#5c6254;stroke-width:0.264583"
         d="m 140.7331,156.14015 c -3.60003,-0.56643 -6.44944,-1.78051 -7.8066,-3.32622 -0.96502,-1.0991 -1.71885,-3.1365 -2.14304,-5.79203 -0.45889,-2.87276 -0.46,-12.32846 -0.003,-21.58752 l 0.37382,-7.56607 0.86944,-0.59576 c 0.9693,-0.66417 3.02064,-2.78286 3.46748,-3.58132 0.27239,-0.48673 0.39878,-0.49867 2.09904,-0.19827 11.72087,2.07083 10.81974,1.96258 15.17065,1.82249 3.01718,-0.0971 4.80815,-0.29817 6.77653,-0.76063 l 2.67548,-0.62858 0.1736,2.85821 c 0.22291,3.67027 0.89679,7.57679 2.39974,13.91145 2.13738,9.00866 2.18667,11.72351 0.28279,15.57575 -2.20684,4.46524 -8.06551,8.1571 -15.05713,9.48831 -2.71805,0.51752 -7.23119,0.70244 -9.27925,0.38019 z m -24.44507,-44.41576 c -1.96305,-0.67791 -2.69662,-1.29486 -3.57917,-3.01022 -1.33475,-2.59424 -1.20776,-6.46558 0.19443,-5.92751 0.33522,0.12864 0.43514,0.52261 0.43514,1.71565 0,3.87614 2.0709,6.13413 5.6307,6.13938 1.09888,0.002 1.53294,0.53053 0.98109,1.19547 -0.4396,0.52969 -1.93515,0.48363 -3.66219,-0.11277 z m 33.16602,-1.77751 c -6.65639,-0.71783 -9.525,-2.40095 -9.525,-5.58868 0,-1.28229 0.09,-1.51176 0.86408,-2.20341 l 0.86406,-0.77204 h 9.0048 c 9.88461,0 10.16269,0.0401 10.95842,1.57884 1.20038,2.32128 -0.75318,5.5314 -3.96427,6.51415 -1.32406,0.40523 -6.21054,0.68591 -8.20209,0.47114 z m 1.13176,-4.74268 c 0.99545,-0.69724 0.66776,-0.91104 -1.39634,-0.91104 -2.07869,0 -2.37834,0.18981 -1.38906,0.8799 0.77135,0.53807 2.04139,0.55227 2.7854,0.0311 z m 4.39749,0.11146 c 0.36264,-0.16523 0.7217,-0.46289 0.79789,-0.66146 0.11027,-0.28734 -0.30534,-0.35933 -2.03596,-0.35267 l -2.17451,0.008 0.74236,0.65309 c 0.80777,0.71065 1.64257,0.82091 2.67022,0.35268 z m 7.17075,-12.494669 c -2.55294,-1.179121 -3.14946,-4.336778 -1.18952,-6.296718 0.88629,-0.88628 1.27434,-0.923301 2.58913,-0.247005 1.23522,0.635365 2.22018,1.680345 2.98867,3.17078 0.54006,1.047403 0.562,1.227765 0.22215,1.826376 -0.87867,1.547681 -3.03899,2.272358 -4.61043,1.546567 z m -18.37954,-0.353277 c -1.19251,-0.621163 -1.94927,-1.95357 -1.94927,-3.432022 0,-1.243383 0.52402,-2.178796 1.72136,-3.072738 0.66475,-0.496314 0.68969,-0.495745 1.73902,0.03958 1.34128,0.684276 2.58328,1.917409 3.25261,3.229417 0.69818,1.368533 0.66549,1.586217 -0.39213,2.6113 -1.14696,1.11167 -2.94355,1.368308 -4.37159,0.624467 z m 39.28163,-5.478105 c -1.66655,-0.409697 -2.41829,-0.802648 -3.52831,-1.844337 -1.54236,-1.447419 -2.09038,-3.160284 -1.23756,-3.86806 0.59692,-0.495398 1.19399,-0.121864 1.19399,0.746969 0,0.965018 0.98059,2.289972 1.42303,1.922778 0.42938,-0.356357 1.7432,-3.219149 3.35145,-7.302752 0.74504,-1.89177 1.45612,-3.544961 1.58018,-3.673758 0.22063,-0.229049 1.86056,0.08277 3.28646,0.624901 l 0.68795,0.261557 -1.1985,1.802384 c -0.75665,1.137893 -1.66852,3.114862 -2.4734,5.3624 -0.70119,1.958009 -1.41853,3.827907 -1.59409,4.155329 -0.31797,0.593034 -0.31153,0.595312 1.68279,0.595312 2.11048,0 2.68591,0.346543 1.98259,1.193993 -0.40445,0.487334 -3.21728,0.500034 -5.15658,0.02328 z m -37.85181,-5.169517 c -1.26515,-0.302815 -3.52813,-1.630166 -3.69943,-2.169908 -0.38641,-1.217446 0.46207,-1.311577 2.15349,-0.238911 1.35823,0.861359 3.0381,1.223145 4.34579,0.935929 0.97595,-0.214355 2.75986,-1.728647 3.32588,-2.823215 0.42407,-0.820061 1.34673,-1.011114 1.60704,-0.332764 0.22683,0.591116 -0.38808,1.648552 -1.76325,3.032183 -1.64185,1.651939 -3.57659,2.169432 -5.96952,1.596686 z m -41.28412,-1.70738 c -0.2651,-0.690845 0.0562,-1.133083 0.9537,-1.312579 0.46276,-0.09255 1.60011,-0.530384 2.52744,-0.97296 l 1.68606,-0.80468 -0.86826,-1.137478 c -0.55094,-0.721776 -1.24564,-2.28967 -1.9009,-4.290185 -0.76267,-2.328473 -1.39478,-3.686706 -2.41781,-5.195264 -0.76184,-1.123407 -1.30144,-2.093138 -1.19911,-2.154958 0.31864,-0.192497 3.0419,-0.961859 3.40462,-0.961859 0.43952,0 1.39765,1.893786 2.40951,4.7625 0.86412,2.449886 2.44796,5.820833 2.73491,5.820833 0.0988,0 0.41076,-0.863203 0.69327,-1.918229 0.42012,-1.56889 0.6182,-1.933655 1.0877,-2.002932 0.84352,-0.124467 0.97356,0.564342 0.45719,2.421643 -0.63471,2.282934 -1.91281,4.559266 -3.07809,5.482188 -1.21309,0.960781 -4.0013,2.273326 -5.33745,2.512587 -0.77597,0.138953 -1.02463,0.08532 -1.15278,-0.248627 z m 65.61512,-11.18901 c -0.81607,-2.50356 -1.47076,-3.563101 -2.70434,-4.376657 -1.32847,-0.876141 -2.9018,-0.505709 -5.14225,1.210714 -1.36509,1.045809 -1.97569,1.196893 -2.22382,0.550259 -0.36707,-0.956566 2.97446,-3.36111 5.15551,-3.709874 1.55254,-0.248261 3.23964,0.444093 4.40787,1.808904 0.95738,1.118477 2.07339,3.663948 1.93199,4.40659 -0.11764,0.617877 -1.23138,0.703902 -1.42496,0.110064 z m -32.54166,-8.396705 c -1.57245,-0.492221 -3.25306,-1.497741 -3.42881,-2.051482 -0.34878,-1.098903 0.54977,-1.327664 1.77845,-0.452771 0.95866,0.682629 2.89672,1.291256 4.11177,1.291256 1.56322,0 3.6445,-1.389945 4.48162,-2.992963 0.27644,-0.529365 0.55509,-0.720191 0.96586,-0.661458 0.87708,0.125402 0.84353,0.875444 -0.0978,2.186205 -1.91114,2.66122 -4.75571,3.637636 -7.8111,2.681213 z"
         id="path37174" />
      <path
         style="fill:#306f48;stroke-width:0.264583"
         d="m 141.13333,156.12323 c -2.72272,-0.3211 -5.34264,-1.19902 -6.96908,-2.3353 -1.82768,-1.27687 -2.70407,-3.04648 -3.23497,-6.53202 -0.50033,-3.28492 -0.51113,-13.74661 -0.0234,-22.72212 l 0.34502,-6.35 2.43064,-2.44332 2.43063,-2.44333 4.95117,0.90188 c 6.76381,1.23207 9.81403,1.56179 12.49181,1.35035 2.00052,-0.15797 5.98913,-0.82502 8.00364,-1.33852 l 0.72761,-0.18547 0.002,1.55004 c 0.005,3.62041 0.64294,7.51642 2.52826,15.44231 1.94271,8.16714 2.01851,11.61035 0.33196,15.0796 -1.05184,2.16365 -3.64317,4.8005 -6.20902,6.3181 -4.79545,2.8363 -12.17194,4.3723 -17.80638,3.7078 z m -24.8453,-44.39884 c -1.96305,-0.67791 -2.69662,-1.29486 -3.57917,-3.01022 -1.33475,-2.59424 -1.20776,-6.46558 0.19443,-5.92751 0.33522,0.12864 0.43514,0.52261 0.43514,1.71565 0,3.87614 2.0709,6.13413 5.6307,6.13938 1.09888,0.002 1.53294,0.53053 0.98109,1.19547 -0.4396,0.52969 -1.93515,0.48363 -3.66219,-0.11277 z m 33.16602,-1.77751 c -6.65639,-0.71783 -9.525,-2.40095 -9.525,-5.58868 0,-1.28229 0.09,-1.51176 0.86408,-2.20341 l 0.86406,-0.77204 h 9.0048 c 9.88461,0 10.16269,0.0401 10.95842,1.57884 1.20038,2.32128 -0.75318,5.5314 -3.96427,6.51415 -1.32406,0.40523 -6.21054,0.68591 -8.20209,0.47114 z m 1.37431,-4.96975 c 0.4083,-0.35142 0.66785,-0.71366 0.57679,-0.80498 -0.0911,-0.0913 -1.16263,-0.13121 -2.38125,-0.0887 l -2.21568,0.0774 0.71558,0.72761 c 0.93219,0.94785 2.26477,0.9836 3.30456,0.0887 z m 4.51995,0.22707 c 0.32342,-0.22653 0.58804,-0.58372 0.58804,-0.79375 0,-0.30095 -0.44854,-0.38187 -2.11667,-0.38187 -1.16417,0 -2.11667,0.11042 -2.11667,0.24538 0,0.4894 1.41415,1.34212 2.22577,1.34212 0.45732,0 1.09611,-0.18534 1.41953,-0.41188 z m -11.6092,-12.852654 c -1.21991,-0.707504 -1.82568,-1.745202 -1.82568,-3.127447 0,-1.394645 0.59346,-2.543995 1.64322,-3.182389 0.80929,-0.492157 0.84138,-0.49199 1.82434,0.0095 1.31304,0.669861 2.68273,2.102323 3.28297,3.433421 0.47161,1.045834 0.47064,1.085204 -0.0441,1.787408 -0.65672,0.895903 -2.09065,1.645026 -3.13455,1.637575 -0.43656,-0.0031 -1.22235,-0.25424 -1.74619,-0.558048 z m 17.83248,0.04608 c -1.09376,-0.666901 -1.66649,-1.799545 -1.66649,-3.295656 0,-0.955341 0.16221,-1.379312 0.81004,-2.117148 1.06175,-1.209259 1.59641,-1.346229 2.81293,-0.720608 1.25446,0.645131 2.24089,1.683869 3.00302,3.162268 0.48246,0.935871 0.53517,1.256551 0.29369,1.786546 -0.72139,1.583264 -3.55237,2.221653 -5.25319,1.184598 z m 21.48455,-5.408017 c -1.66655,-0.409697 -2.41829,-0.802648 -3.52831,-1.844337 -1.54236,-1.447419 -2.09038,-3.160284 -1.23756,-3.86806 0.59692,-0.495398 1.19399,-0.121864 1.19399,0.746969 0,0.839523 0.95179,2.257732 1.35003,2.011606 0.3186,-0.196905 1.77044,-3.066476 2.26015,-4.467182 0.20619,-0.589773 0.92417,-2.354811 1.59551,-3.922305 0.92533,-2.160527 1.3234,-2.823448 1.64549,-2.740269 2.47078,0.63808 2.97092,0.798608 3.09039,0.991907 0.0761,0.123119 -0.34201,0.931209 -0.92912,1.795754 -0.63797,0.939464 -1.48655,2.796844 -2.1091,4.616447 -0.57291,1.674498 -1.28227,3.588515 -1.57637,4.253367 l -0.53472,1.208826 h 1.9778 c 2.08568,0 2.65915,0.349636 1.9584,1.193993 -0.40445,0.487334 -3.21728,0.500034 -5.15658,0.02328 z m -37.85181,-5.169517 c -1.26515,-0.302815 -3.52813,-1.630166 -3.69943,-2.169908 -0.38641,-1.217446 0.46207,-1.311577 2.15349,-0.238911 1.35823,0.861359 3.0381,1.223145 4.34579,0.935929 0.97595,-0.214355 2.75986,-1.728647 3.32588,-2.823215 0.42407,-0.820061 1.34673,-1.011114 1.60704,-0.332764 0.22683,0.591116 -0.38808,1.648552 -1.76325,3.032183 -1.64185,1.651939 -3.57659,2.169432 -5.96952,1.596686 z m -41.28412,-1.70738 c -0.2651,-0.690845 0.0562,-1.133083 0.9537,-1.312579 0.46276,-0.09255 1.60461,-0.532532 2.53745,-0.977733 l 1.69606,-0.809456 -0.78358,-0.97812 c -0.78134,-0.975331 -2.12897,-4.151772 -2.12937,-5.019053 -3.2e-4,-0.696088 -1.48847,-3.691043 -2.55796,-5.147977 -0.55091,-0.750502 -0.85366,-1.395539 -0.71837,-1.530588 0.22229,-0.221897 3.3268,-1.119977 3.40822,-0.985936 0.88653,1.459609 1.55433,2.891121 2.18973,4.693979 0.86296,2.448543 2.44706,5.820833 2.73428,5.820833 0.0988,0 0.41076,-0.863203 0.69327,-1.918229 0.42012,-1.56889 0.6182,-1.933655 1.0877,-2.002932 0.84352,-0.124467 0.97356,0.564342 0.45719,2.421643 -0.63471,2.282934 -1.91281,4.559266 -3.07809,5.482188 -1.21309,0.960781 -4.0013,2.273326 -5.33745,2.512587 -0.77597,0.138953 -1.02463,0.08532 -1.15278,-0.248627 z m 65.61512,-11.18901 c -0.81607,-2.50356 -1.47076,-3.563101 -2.70434,-4.376657 -1.32847,-0.876141 -2.9018,-0.505709 -5.14225,1.210714 -1.36509,1.045809 -1.97569,1.196893 -2.22382,0.550259 -0.36707,-0.956566 2.97446,-3.36111 5.15551,-3.709874 1.55254,-0.248261 3.23964,0.444093 4.40787,1.808904 0.95738,1.118477 2.07339,3.663948 1.93199,4.40659 -0.11764,0.617877 -1.23138,0.703902 -1.42496,0.110064 z m -32.54166,-8.396705 c -1.57245,-0.492221 -3.25306,-1.497741 -3.42881,-2.051482 -0.34878,-1.098903 0.54977,-1.327664 1.77845,-0.452771 0.95866,0.682629 2.89672,1.291256 4.11177,1.291256 1.56322,0 3.6445,-1.389945 4.48162,-2.992963 0.27644,-0.529365 0.55509,-0.720191 0.96586,-0.661458 0.87708,0.125402 0.84353,0.875444 -0.0978,2.186205 -1.91114,2.66122 -4.75571,3.637636 -7.8111,2.681213 z"
         id="path37172" />
      <path
         style="fill:#5e4330;stroke-width:0.264583"
         d="m 141.13333,156.12323 c -2.72272,-0.3211 -5.34264,-1.19902 -6.96908,-2.3353 -1.82768,-1.27687 -2.70407,-3.04648 -3.23497,-6.53202 -0.50033,-3.28492 -0.51113,-13.74661 -0.0234,-22.72212 l 0.34502,-6.35 2.43064,-2.44332 2.43063,-2.44333 4.95117,0.90188 c 6.76381,1.23207 9.81403,1.56179 12.49181,1.35035 2.00052,-0.15797 5.98913,-0.82502 8.00364,-1.33852 l 0.72761,-0.18547 0.002,1.55004 c 0.005,3.62041 0.64294,7.51642 2.52826,15.44231 1.94271,8.16714 2.01851,11.61035 0.33196,15.0796 -1.05184,2.16365 -3.64317,4.8005 -6.20902,6.3181 -4.79545,2.8363 -12.17194,4.3723 -17.80638,3.7078 z m 5.45735,-46.69529 c -4.64689,-0.83973 -6.80202,-2.65408 -6.57062,-5.53165 0.0746,-0.92788 0.62141,-1.68368 1.53004,-2.11485 0.76187,-0.36153 2.10244,-0.40854 9.77327,-0.3427 l 8.89029,0.0763 0.77176,0.86407 c 1.02139,1.14356 1.06396,2.82417 0.11264,4.44747 -1.31518,2.24418 -3.6438,3.03351 -8.84776,2.99909 -1.9745,-0.0131 -4.52133,-0.19204 -5.65962,-0.39773 z m 4.23768,-4.45081 c 0.4083,-0.35142 0.66785,-0.71366 0.57679,-0.80498 -0.0911,-0.0913 -1.16263,-0.13121 -2.38125,-0.0887 l -2.21568,0.0774 0.71558,0.72761 c 0.93219,0.94785 2.26477,0.9836 3.30456,0.0887 z m 4.51995,0.22707 c 0.32342,-0.22653 0.58804,-0.58372 0.58804,-0.79375 0,-0.30095 -0.44854,-0.38187 -2.11667,-0.38187 -1.16417,0 -2.11667,0.11042 -2.11667,0.24538 0,0.4894 1.41415,1.34212 2.22577,1.34212 0.45732,0 1.09611,-0.18534 1.41953,-0.41188 z m -11.6092,-12.837414 c -0.52385,-0.312193 -1.14892,-0.900234 -1.38906,-1.306759 -0.94393,-1.597938 -0.24764,-4.373771 1.27064,-5.065545 1.32721,-0.604719 3.7651,1.089834 4.8088,3.342544 0.52446,1.131994 0.56176,1.394307 0.2624,1.845167 -1.06595,1.605399 -3.33575,2.148287 -4.95278,1.184593 z m 17.83248,0.03084 c -1.7583,-1.0721 -2.25602,-3.76741 -0.9765,-5.288042 1.087,-1.291823 1.53105,-1.429737 2.69368,-0.836607 2.12197,1.082548 4.09473,3.935925 3.49542,5.05574 -0.8051,1.504352 -3.56894,2.071111 -5.2126,1.068909 z m 20.38574,-7.434199 -1.0988,-0.543907 1.03428,-2.035572 c 0.56886,-1.119565 1.62957,-3.583387 2.35713,-5.475157 0.72757,-1.891771 1.41816,-3.587901 1.53464,-3.769178 0.16729,-0.260331 0.54228,-0.243562 1.78439,0.07979 0.86492,0.22516 1.67196,0.508574 1.79342,0.629806 0.12146,0.121232 -0.31578,1.037828 -0.97164,2.036876 -0.72413,1.103037 -1.62805,3.063444 -2.30149,4.991455 -1.7764,5.085714 -1.88837,5.196437 -4.13193,4.085887 z m -73.88684,-9.382744 c -0.4171,-0.657699 -1.08989,-2.235277 -1.4951,-3.505729 -0.88369,-2.770617 -1.71488,-4.518744 -2.96225,-6.230038 -0.5374,-0.737272 -0.83029,-1.37266 -0.695,-1.50771 0.22608,-0.225684 3.31418,-1.115033 3.42347,-0.985936 0.32488,0.383735 1.55348,3.199941 2.21722,5.082315 0.46015,1.304991 1.24274,3.137507 1.7391,4.072259 0.7412,1.395854 0.85131,1.799246 0.61623,2.257496 -0.3622,0.706067 -1.57271,2.013159 -1.86439,2.013159 -0.1215,0 -0.56218,-0.538117 -0.97928,-1.195816 z"
         id="path37170" />
      <path
         style="fill:#4d382b;stroke-width:0.264583"
         d="m 139.05821,155.74797 c -2.36116,-0.51271 -4.50257,-1.56114 -5.81904,-2.84898 -1.3144,-1.28581 -1.99624,-3.13705 -2.43024,-6.59825 -0.37919,-3.02413 -0.32752,-13.3121 0.10786,-21.47694 l 0.36548,-6.85373 0.88381,-0.66882 c 0.48609,-0.36785 1.46404,-1.27227 2.17322,-2.00981 l 1.28942,-1.34098 -0.20268,1.85208 c -0.39565,3.61556 -0.32026,6.48229 0.17046,6.48229 0.12733,0 0.23442,-0.8632 0.23798,-1.91823 0.004,-1.05502 0.11866,-2.40393 0.25577,-2.99757 0.14819,-0.64155 0.15639,-1.66106 0.0202,-2.51354 -0.126,-0.78881 -0.20623,-1.45915 -0.17828,-1.48965 0.0279,-0.0305 1.89117,0.28902 4.1405,0.71003 6.88363,1.28843 10.17773,1.66872 13.08553,1.51067 2.21992,-0.12066 6.94929,-0.88497 8.6651,-1.40037 0.41139,-0.12357 0.46316,0.0768 0.46424,1.79698 0.002,2.80137 0.84415,8.07954 2.2092,13.84231 1.55554,6.56697 1.79065,7.95269 1.79802,10.59735 0.007,2.37842 -0.52324,4.67662 -1.4303,6.20369 -2.7001,4.54568 -8.06712,7.74448 -15.29405,9.1154 -2.65369,0.5034 -8.20715,0.5066 -10.51222,0.006 z m -1.35627,-20.36626 c -0.0321,-1.89178 -0.17885,-3.55865 -0.32602,-3.70417 -0.18022,-0.1782 -0.25097,0.55609 -0.21669,2.24896 0.028,1.38245 -0.0389,3.83676 -0.14872,5.45404 -0.1098,1.61727 -0.0999,3.28414 0.022,3.70416 0.33699,1.16122 0.74106,-3.48818 0.66945,-7.70299 z m 11.47043,4.82864 c 0.10227,-1.49159 0.19367,-3.00963 0.20312,-3.37344 0.0296,-1.14109 -0.39293,-5.8344 -0.51438,-5.71295 -0.0637,0.0637 -0.16741,1.70254 -0.23055,3.64195 -0.0631,1.93942 -0.14856,4.24059 -0.18983,5.11371 -0.17976,3.80323 0.47332,4.09845 0.73164,0.33073 z m 10.58333,0 c 0.10227,-1.49159 0.19368,-3.00963 0.20313,-3.37344 0.0296,-1.14109 -0.39294,-5.8344 -0.51439,-5.71295 -0.0637,0.0637 -0.1674,1.70254 -0.23054,3.64195 -0.0631,1.93942 -0.14857,4.24059 -0.18984,5.11371 -0.17976,3.80323 0.47332,4.09845 0.73164,0.33073 z m -16.40416,-11.64167 c 0.10226,-1.49158 0.19367,-3.00963 0.20312,-3.37343 0.0296,-1.1411 -0.39293,-5.83441 -0.51439,-5.71296 -0.0636,0.0637 -0.1674,1.70254 -0.23054,3.64196 -0.0631,1.93941 -0.14857,4.24058 -0.18983,5.11371 -0.17977,3.80323 0.47331,4.09844 0.73164,0.33072 z m 12.17083,-1.58749 c 0.10227,-1.49159 0.19367,-3.00964 0.20312,-3.37344 0.0297,-1.1411 -0.39293,-5.83441 -0.51438,-5.71296 -0.0637,0.0637 -0.16741,1.70254 -0.23055,3.64196 -0.0631,1.93941 -0.14856,4.24058 -0.18983,5.11371 -0.17976,3.80323 0.47332,4.09844 0.73164,0.33073 z m -8.93169,-17.55325 c -4.64689,-0.83973 -6.80202,-2.65408 -6.57062,-5.53165 0.0746,-0.92788 0.62141,-1.68368 1.53004,-2.11485 0.76187,-0.36153 2.10244,-0.40854 9.77327,-0.3427 l 8.89029,0.0763 0.77176,0.86407 c 1.02139,1.14356 1.06396,2.82417 0.11264,4.44747 -1.31518,2.24418 -3.6438,3.03351 -8.84776,2.99909 -1.9745,-0.0131 -4.52133,-0.19204 -5.65962,-0.39773 z m 4.15061,-4.36023 c 0.38343,-0.3016 0.69714,-0.65879 0.69714,-0.79375 0,-0.13496 -1.01203,-0.24538 -2.24896,-0.24538 -1.23693,0 -2.24896,0.11042 -2.24896,0.24538 0,0.49543 1.41879,1.34212 2.24896,1.34212 0.47008,0 1.16839,-0.24676 1.55182,-0.54837 z m 4.60702,0.13649 c 0.32342,-0.22653 0.58804,-0.58372 0.58804,-0.79375 0,-0.30095 -0.44854,-0.38187 -2.11667,-0.38187 -1.16417,0 -2.11667,0.11042 -2.11667,0.24538 0,0.4894 1.41415,1.34212 2.22577,1.34212 0.45732,0 1.09611,-0.18534 1.41953,-0.41188 z m -11.6092,-12.837414 c -0.52385,-0.312193 -1.14892,-0.900234 -1.38906,-1.306759 -0.94393,-1.597938 -0.24764,-4.373771 1.27064,-5.065545 1.32721,-0.604719 3.7651,1.089834 4.8088,3.342544 0.52446,1.131994 0.56176,1.394307 0.2624,1.845167 -1.06595,1.605399 -3.33575,2.148287 -4.95278,1.184593 z m 17.83248,0.03084 c -1.7583,-1.0721 -2.25602,-3.76741 -0.9765,-5.288042 1.087,-1.291823 1.53105,-1.429737 2.69368,-0.836607 2.12197,1.082548 4.09473,3.935925 3.49542,5.05574 -0.8051,1.504352 -3.56894,2.071111 -5.2126,1.068909 z m 20.38574,-7.434199 -1.0988,-0.543907 1.03428,-2.035572 c 0.56886,-1.119565 1.63427,-3.603056 2.36758,-5.518869 0.73331,-1.915811 1.47672,-3.598611 1.65202,-3.739555 0.3337,-0.268295 3.0202,0.293489 3.44767,0.720955 0.12273,0.122735 -0.31347,1.040559 -0.96933,2.039607 -0.72413,1.103037 -1.62805,3.063444 -2.30149,4.991455 -1.7764,5.085714 -1.88837,5.196437 -4.13193,4.085886 z m -73.88684,-9.382744 c -0.4171,-0.657699 -1.08989,-2.235277 -1.4951,-3.505729 -0.87501,-2.743416 -1.70088,-4.493014 -2.94717,-6.243567 -0.50427,-0.708301 -0.81668,-1.388 -0.69424,-1.510442 0.2954,-0.295397 3.07216,-1.008675 3.33188,-0.855872 0.36307,0.213612 1.43653,2.539633 2.29297,4.968512 0.46015,1.304991 1.24274,3.137507 1.7391,4.072259 0.7412,1.395854 0.85131,1.799246 0.61623,2.257496 -0.3622,0.706067 -1.57271,2.013159 -1.86439,2.013159 -0.1215,0 -0.56218,-0.538117 -0.97928,-1.195816 z"
         id="path37168" />
      <path
         style="fill:#292525;stroke-width:0.264583"
         d="m 147.99885,109.65901 c -1.70233,-0.19434 -4.23431,-0.85763 -5.23117,-1.37036 -3.1144,-1.60192 -3.81481,-5.27474 -1.23898,-6.49705 1.25825,-0.59709 17.4868,-0.60883 18.63806,-0.0135 1.10187,0.5698 1.59042,1.41035 1.59042,2.73634 0,2.35563 -1.70027,4.16861 -4.61965,4.9259 -1.49061,0.38667 -6.59684,0.50884 -9.13868,0.21866 z m 2.82721,-4.61821 c 0.33681,-0.31641 0.61237,-0.6736 0.61237,-0.79375 0,-0.12016 -1.01203,-0.21847 -2.24896,-0.21847 -1.23693,0 -2.24896,0.11042 -2.24896,0.24538 0,0.13496 0.31372,0.49215 0.69714,0.79375 0.93139,0.73263 2.39305,0.72029 3.18841,-0.0269 z m 4.79158,-0.15232 0.71558,-0.72761 -2.21568,-0.0774 c -1.21862,-0.0426 -2.28073,-0.0123 -2.36024,0.0672 -0.0795,0.0795 0.13463,0.44176 0.47586,0.80499 0.88823,0.94548 2.41842,0.9151 3.38448,-0.0672 z M 144.16239,92.542585 c -1.37994,-0.61332 -2.06074,-1.588867 -2.18444,-3.130198 -0.0917,-1.143044 1.6e-4,-1.555599 0.51541,-2.313646 0.94233,-1.386379 1.7497,-1.561999 3.2199,-0.700399 1.32469,0.776313 2.31689,1.926058 2.93144,3.396876 0.37377,0.894546 0.36365,0.994916 -0.16853,1.671466 -1.03129,1.311079 -2.79495,1.750951 -4.31378,1.075901 z m 17.4092,-0.144959 c -2.20163,-1.342412 -2.19105,-4.782199 0.0192,-6.230387 0.60904,-0.399061 0.7225,-0.39193 1.7002,0.106854 2.18394,1.114161 4.11,4.11774 3.3271,5.188416 -1.07433,1.469228 -3.44887,1.909233 -5.04647,0.935117 z m 20.62465,-7.411919 c -0.61846,-0.28073 -1.12304,-0.605538 -1.12129,-0.721794 0.002,-0.116255 0.31188,-0.747154 0.68917,-1.401997 0.37729,-0.654844 1.25226,-2.678907 1.94437,-4.497917 1.95755,-5.144862 2.03125,-5.291667 2.65657,-5.291667 0.8078,0 2.89437,0.55638 3.05376,0.814279 0.0748,0.121016 -0.27016,0.79098 -0.76657,1.488813 -1.17925,1.657729 -1.81862,2.972652 -2.54673,5.237533 -0.95713,2.977311 -1.88224,4.895456 -2.35791,4.888982 -0.23479,-0.0032 -0.9329,-0.235501 -1.55137,-0.516232 z m -73.55199,-8.812675 c -0.77034,-0.841086 -1.4623,-2.339541 -2.4217,-5.244216 -0.52965,-1.603566 -1.31737,-3.257449 -2.13608,-4.484839 -0.71335,-1.069446 -1.24723,-2.024985 -1.1864,-2.12342 0.13896,-0.224839 2.28385,-0.773224 3.0243,-0.773224 0.61848,0 0.96277,0.67565 2.6768,5.253122 0.56421,1.506769 1.38383,3.365283 1.82138,4.130032 l 0.79553,1.390449 -0.77443,1.069075 c -1.02231,1.41125 -1.16654,1.474012 -1.7994,0.783021 z"
         id="path37166" />
    </g>
  </g>
</svg>
